<svg width="110" height="94" viewBox="0 0 110 94" fill="none" xmlns="http://www.w3.org/2000/svg">
<path d="M27.5455 42.4545L41.3636 81.6364H41.9091L55.7273 42.4545H61.6364L44.5455 89H38.7273L21.6364 42.4545H27.5455Z" fill="#00FF00"/>
<path d="M84 89H69.6364V42.4545H84.6364C89.1515 42.4545 93.0152 43.3864 96.2273 45.25C99.4394 47.0985 101.902 49.7576 103.614 53.2273C105.326 56.6818 106.182 60.8182 106.182 65.6364C106.182 70.4848 105.318 74.6591 103.591 78.1591C101.864 81.6439 99.3485 84.3258 96.0455 86.2045C92.7424 88.0682 88.7273 89 84 89ZM75.2727 84H83.6364C87.4848 84 90.6742 83.2576 93.2045 81.7727C95.7348 80.2879 97.6212 78.1742 98.8636 75.4318C100.106 72.6894 100.727 69.4242 100.727 65.6364C100.727 61.8788 100.114 58.6439 98.8864 55.9318C97.6591 53.2045 95.8258 51.1136 93.3864 49.6591C90.947 48.1894 87.9091 47.4545 84.2727 47.4545H75.2727V84Z" fill="#2B34B0"/>
<line x1="20" y1="91.5" x2="110" y2="91.5" stroke="#FFDD00" stroke-width="5"/>
</svg>
